<?xml version="1.0" standalone="no"?>
<!DOCTYPE svg PUBLIC "-//W3C//DTD SVG 20010904//EN"
 "http://www.w3.org/TR/2001/REC-SVG-20010904/DTD/svg10.dtd">
<svg version="1.0" xmlns="http://www.w3.org/2000/svg"
 width="842.000000pt" height="1280.000000pt" viewBox="0 0 842.000000 1280.000000"
 preserveAspectRatio="xMidYMid meet">
<metadata>
Created by potrace 1.15, written by Peter Selinger 2001-2017
</metadata>
<g transform="translate(0.000000,1280.000000) scale(0.100000,-0.100000)"
fill="#000000" stroke="none">
<path d="M580 12789 c-150 -60 -263 -400 -329 -994 -73 -658 -95 -1556 -81
-3420 5 -638 12 -1205 15 -1260 15 -243 44 -408 129 -745 73 -287 79 -356 72
-735 -24 -1144 -72 -1733 -246 -3050 -123 -932 -134 -1039 -134 -1385 -1 -328
21 -506 89 -747 40 -138 79 -208 159 -288 112 -111 222 -157 381 -158 209 -2
402 108 493 279 37 72 74 216 104 409 17 114 21 186 21 390 1 309 -8 403 -117
1270 -107 846 -155 1375 -191 2100 -17 349 -35 1023 -35 1304 0 280 9 309 212
750 180 393 230 516 292 731 45 152 82 334 101 500 27 222 19 988 -15 1610
-79 1407 -256 2508 -490 3053 -124 287 -294 440 -430 386z"/>
<path d="M6881 10334 c-134 -28 -282 -116 -419 -248 -385 -369 -678 -1073
-766 -1836 -89 -774 1 -1168 348 -1516 116 -116 221 -195 448 -338 155 -98
228 -159 253 -213 17 -35 18 -65 11 -393 -21 -1109 -69 -1713 -251 -3165 -46
-368 -91 -744 -100 -835 -48 -514 -42 -843 20 -1157 51 -252 103 -373 204
-474 107 -106 219 -151 386 -151 194 -2 378 97 472 255 95 157 151 561 139
1007 -8 311 -27 533 -120 1375 -120 1082 -154 1475 -186 2095 -5 113 -12 241
-15 285 -3 44 -10 311 -15 593 -8 368 -8 524 0 553 22 79 97 142 325 269 262
145 429 272 534 404 206 258 282 546 267 1006 -18 562 -117 1052 -301 1485
-292 688 -794 1095 -1234 999z"/>
<path d="M3051 10139 c-120 -197 -277 -2000 -241 -2769 10 -224 20 -302 51
-394 47 -141 109 -225 329 -451 232 -238 300 -343 330 -505 21 -113 3 -914
-35 -1525 -38 -600 -83 -1028 -205 -1915 -114 -831 -125 -945 -125 -1330 1
-375 18 -528 96 -832 70 -276 283 -434 558 -414 152 11 290 75 386 178 65 70
98 135 129 258 67 266 91 516 83 875 -8 343 -20 463 -127 1325 -162 1300 -217
2055 -223 3050 -2 306 0 351 16 402 32 103 83 176 219 310 218 216 295 314
374 482 85 181 99 300 98 846 -1 628 -58 1400 -150 2040 -86 595 -123 536
-159 -245 -8 -181 -19 -438 -25 -570 -24 -526 -52 -842 -91 -999 -22 -92 -41
-126 -69 -126 -78 0 -116 317 -140 1160 -27 962 -44 1180 -91 1180 -30 0 -52
-196 -68 -600 -42 -1031 -49 -1168 -77 -1390 -34 -273 -81 -387 -142 -344 -45
31 -80 187 -102 459 -5 66 -14 410 -20 765 -14 878 -27 1110 -65 1110 -44 0
-70 -233 -110 -995 -51 -947 -88 -1268 -156 -1336 l-21 -21 -24 23 c-78 73
-105 409 -124 1539 -9 530 -19 755 -36 781 -10 17 -24 9 -43 -22z"/>
</g>
</svg>
